<svg width="100%" height="100%" id="svg" viewBox="0 0 1440 390" xmlns="http://www.w3.org/2000/svg" class="transition duration-300 ease-in-out delay-150"><defs><linearGradient id="gradient" x1="50%" y1="0%" x2="50%" y2="100%"><stop offset="5%" stop-color="#7bdcb5"></stop><stop offset="95%" stop-color="#8ed1fc"></stop></linearGradient></defs><path d="M 0,400 L 0,75 C 49.04248063654869,93.04854741071665 98.08496127309738,111.0970948214333 147,111 C 195.91503872690262,110.9029051785667 244.70263554415925,92.66016812498347 291,89 C 337.29736445584075,85.33983187501653 381.10449655026565,96.2622326786328 436,87 C 490.89550344973435,77.7377673213672 556.8793782547781,48.29090116048533 600,46 C 643.1206217452219,43.70909883951467 663.377990430622,68.57416267942585 710,81 C 756.622009569378,93.42583732057415 829.6086600227337,93.4124481218113 879,100 C 928.3913399772663,106.5875518781887 954.1873694784426,119.77604483332894 997,109 C 1039.8126305215574,98.22395516667106 1099.641862063496,63.483372544872964 1149,64 C 1198.358137936504,64.51662745512704 1237.2451822675725,100.29046498717916 1284,108 C 1330.7548177324275,115.70953501282084 1385.3774088662137,95.35476750641041 1440,75 L 1440,400 L 0,400 Z" stroke="none" stroke-width="0" fill="url(#gradient)" fill-opacity="0.4" class="transition-all duration-300 ease-in-out delay-150 path-0" transform="rotate(-180 720 200)"></path><defs><linearGradient id="gradient" x1="50%" y1="0%" x2="50%" y2="100%"><stop offset="5%" stop-color="#7bdcb5"></stop><stop offset="95%" stop-color="#8ed1fc"></stop></linearGradient></defs><path d="M 0,400 L 0,175 C 59.02059266700151,174.01927092971002 118.04118533400302,173.03854185942004 160,169 C 201.95881466599698,164.96145814057996 226.85585133098942,157.86510349202993 270,169 C 313.1441486690106,180.13489650797007 374.53540934203926,209.5010441724603 428,205 C 481.46459065796074,200.4989558275397 527.0025113008538,162.13071981812894 576,153 C 624.9974886991462,143.86928018187106 677.4545454545453,163.97607655502392 724,168 C 770.5454545454547,172.02392344497608 811.1793068809645,159.96497396177534 854,157 C 896.8206931190355,154.03502603822466 941.8282270215971,160.16402759787465 999,165 C 1056.171772978403,169.83597240212535 1125.5077850326468,173.37891564672606 1172,176 C 1218.4922149673532,178.62108435327394 1242.1406328478154,180.32030981522112 1283,180 C 1323.8593671521846,179.67969018477888 1381.9296835760924,177.33984509238945 1440,175 L 1440,400 L 0,400 Z" stroke="none" stroke-width="0" fill="url(#gradient)" fill-opacity="0.53" class="transition-all duration-300 ease-in-out delay-150 path-1" transform="rotate(-180 720 200)"></path><defs><linearGradient id="gradient" x1="50%" y1="0%" x2="50%" y2="100%"><stop offset="5%" stop-color="#7bdcb5"></stop><stop offset="95%" stop-color="#8ed1fc"></stop></linearGradient></defs><path d="M 0,400 L 0,275 C 32.829799888974065,287.9921356631156 65.65959977794813,300.9842713262312 119,302 C 172.34040022205187,303.0157286737688 246.1914007771815,292.0550503581908 298,285 C 349.8085992228185,277.9449496418092 379.57479711332576,274.7955272410056 422,274 C 464.42520288667424,273.2044727589944 519.5094107695155,274.76284067778687 569,285 C 618.4905892304845,295.23715932221313 662.3875598086124,314.15311004784695 707,310 C 751.6124401913876,305.84688995215305 796.9403499960348,278.6247191308255 853,264 C 909.0596500039652,249.37528086917447 975.8510402072484,247.3480134288509 1020,257 C 1064.1489597927516,266.6519865711491 1085.6554891749718,287.98322715377094 1131,289 C 1176.3445108250282,290.01677284622906 1245.5270030928652,270.7190779560654 1301,265 C 1356.4729969071348,259.2809220439346 1398.2364984535675,267.1404610219673 1440,275 L 1440,400 L 0,400 Z" stroke="none" stroke-width="0" fill="url(#gradient)" fill-opacity="1" class="transition-all duration-300 ease-in-out delay-150 path-2" transform="rotate(-180 720 200)"></path></svg>