<svg width="185.8" height="29.92" viewBox="0 0 185.8 29.92" xmlns="http://www.w3.org/2000/svg"><g id="svgGroup" stroke-linecap="round" fill-rule="evenodd" font-size="9pt" stroke="#0080b3" stroke-width="0.25mm" fill="#0080b3" style="stroke:#0080b3;stroke-width:0.25mm;fill:#0080b3"><path d="M 42.44 16.88 L 42.44 29.6 L 40.68 29.6 L 40.68 17 Q 40.68 14.212 39.668 12.364 A 6.202 6.202 0 0 0 38.72 11.06 A 6.484 6.484 0 0 0 35.086 9.145 A 9.356 9.356 0 0 0 33.4 9 A 8.939 8.939 0 0 0 30.89 9.335 A 6.792 6.792 0 0 0 27.78 11.24 A 7.084 7.084 0 0 0 26.247 13.891 Q 25.68 15.594 25.68 17.88 L 25.68 29.6 L 23.88 29.6 L 23.88 0 L 25.68 0 L 25.68 12.48 Q 26.6 10.04 28.76 8.74 Q 30.92 7.44 33.72 7.44 A 10.121 10.121 0 0 1 36.66 7.848 A 8.053 8.053 0 0 1 40 9.82 A 7.534 7.534 0 0 1 41.904 12.998 Q 42.44 14.686 42.44 16.88 Z M 185.8 16.88 L 185.8 29.6 L 184.04 29.6 L 184.04 17 Q 184.04 14.212 183.028 12.364 A 6.202 6.202 0 0 0 182.08 11.06 A 6.484 6.484 0 0 0 178.446 9.145 A 9.356 9.356 0 0 0 176.76 9 A 8.939 8.939 0 0 0 174.25 9.335 A 6.792 6.792 0 0 0 171.14 11.24 A 7.084 7.084 0 0 0 169.607 13.891 Q 169.04 15.594 169.04 17.88 L 169.04 29.6 L 167.24 29.6 L 167.24 7.88 L 169.04 7.88 L 169.04 12.48 Q 169.96 10.04 172.1 8.74 Q 174.24 7.44 177.04 7.44 Q 180.92 7.44 183.36 9.82 A 7.534 7.534 0 0 1 185.264 12.998 Q 185.8 14.686 185.8 16.88 Z M 93.16 16.88 L 93.16 29.6 L 91.4 29.6 L 91.4 17 Q 91.4 14.212 90.388 12.364 A 6.202 6.202 0 0 0 89.44 11.06 A 6.484 6.484 0 0 0 85.806 9.145 A 9.356 9.356 0 0 0 84.12 9 A 8.939 8.939 0 0 0 81.61 9.335 A 6.792 6.792 0 0 0 78.5 11.24 A 7.084 7.084 0 0 0 76.967 13.891 Q 76.4 15.594 76.4 17.88 L 76.4 29.6 L 74.6 29.6 L 74.6 7.88 L 76.4 7.88 L 76.4 12.48 Q 77.32 10.04 79.46 8.74 Q 81.6 7.44 84.4 7.44 Q 88.28 7.44 90.72 9.82 A 7.534 7.534 0 0 1 92.624 12.998 Q 93.16 14.686 93.16 16.88 Z M 17.52 1.52 L 19.56 1.52 L 10.72 18.24 L 10.72 29.6 L 8.92 29.6 L 8.92 18.24 L 0 1.52 L 2.04 1.52 L 9.8 16.56 L 17.52 1.52 Z M 158.88 13.56 L 158.88 7.88 L 160.68 7.88 L 160.68 29.6 L 158.88 29.6 L 158.88 23.88 Q 157.92 26.52 155.5 28.22 A 9.291 9.291 0 0 1 151.417 29.8 A 12.196 12.196 0 0 1 149.68 29.92 A 11.448 11.448 0 0 1 146.469 29.483 A 9.897 9.897 0 0 1 144.26 28.54 Q 141.88 27.16 140.54 24.62 A 11.479 11.479 0 0 1 139.358 20.933 A 14.947 14.947 0 0 1 139.2 18.72 A 14.296 14.296 0 0 1 139.494 15.755 A 11.047 11.047 0 0 1 140.54 12.84 Q 141.88 10.32 144.26 8.96 A 10.373 10.373 0 0 1 148.518 7.652 A 12.788 12.788 0 0 1 149.68 7.6 A 11.733 11.733 0 0 1 152.491 7.922 A 8.968 8.968 0 0 1 155.52 9.28 Q 157.92 10.96 158.88 13.56 Z M 118.08 13.56 L 118.08 7.88 L 119.88 7.88 L 119.88 29.6 L 118.08 29.6 L 118.08 23.88 Q 117.12 26.52 114.7 28.22 A 9.291 9.291 0 0 1 110.617 29.8 A 12.196 12.196 0 0 1 108.88 29.92 A 11.448 11.448 0 0 1 105.669 29.483 A 9.897 9.897 0 0 1 103.46 28.54 Q 101.08 27.16 99.74 24.62 A 11.479 11.479 0 0 1 98.558 20.933 A 14.947 14.947 0 0 1 98.4 18.72 A 14.296 14.296 0 0 1 98.694 15.755 A 11.047 11.047 0 0 1 99.74 12.84 Q 101.08 10.32 103.46 8.96 A 10.373 10.373 0 0 1 107.718 7.652 A 12.788 12.788 0 0 1 108.88 7.6 A 11.733 11.733 0 0 1 111.691 7.922 A 8.968 8.968 0 0 1 114.72 9.28 Q 117.12 10.96 118.08 13.56 Z M 135.56 9.44 L 129.12 9.44 L 129.12 23.8 Q 129.12 25.72 129.683 26.68 A 2.161 2.161 0 0 0 130 27.1 A 2.449 2.449 0 0 0 130.83 27.64 Q 131.703 28 133.12 28 L 135.56 28 L 135.56 29.6 L 132.84 29.6 A 9.536 9.536 0 0 1 131.305 29.485 Q 130.509 29.355 129.878 29.078 A 3.947 3.947 0 0 1 128.66 28.26 Q 127.32 26.92 127.32 23.8 L 127.32 9.44 L 124.04 9.44 L 124.04 7.88 L 127.32 7.88 L 127.32 2.36 L 129.12 2.36 L 129.12 7.88 L 135.56 7.88 L 135.56 9.44 Z M 54.815 29.395 A 11.677 11.677 0 0 0 58.36 29.92 A 13.128 13.128 0 0 0 59.111 29.899 A 10.981 10.981 0 0 0 63.86 28.56 Q 66.32 27.2 67.72 24.66 A 10.876 10.876 0 0 0 68.812 21.719 A 13.997 13.997 0 0 0 69.12 18.72 A 14.667 14.667 0 0 0 68.942 16.39 A 11.072 11.072 0 0 0 67.74 12.8 Q 66.36 10.28 63.92 8.94 Q 61.48 7.6 58.44 7.6 A 13.317 13.317 0 0 0 57.677 7.622 A 11.102 11.102 0 0 0 52.94 8.94 Q 50.48 10.28 49.08 12.82 Q 47.68 15.36 47.68 18.72 Q 47.68 22.12 49.06 24.66 Q 50.44 27.2 52.88 28.56 A 10.436 10.436 0 0 0 54.815 29.395 Z M 118.08 18.72 Q 118.08 15.88 116.9 13.7 A 8.548 8.548 0 0 0 114.56 10.926 A 8.329 8.329 0 0 0 113.68 10.34 Q 111.64 9.16 109.12 9.16 Q 106.48 9.16 104.48 10.3 A 7.83 7.83 0 0 0 101.431 13.466 A 9.375 9.375 0 0 0 101.36 13.6 A 9.727 9.727 0 0 0 100.432 16.406 A 13.316 13.316 0 0 0 100.24 18.72 Q 100.24 21.68 101.36 23.84 Q 102.48 26 104.5 27.16 Q 106.52 28.32 109.12 28.32 A 9.289 9.289 0 0 0 112.505 27.71 A 8.789 8.789 0 0 0 113.7 27.14 Q 115.76 25.96 116.92 23.78 A 9.792 9.792 0 0 0 117.943 20.617 A 12.694 12.694 0 0 0 118.08 18.72 Z M 158.88 18.72 Q 158.88 15.88 157.7 13.7 A 8.548 8.548 0 0 0 155.36 10.926 A 8.329 8.329 0 0 0 154.48 10.34 Q 152.44 9.16 149.92 9.16 Q 147.28 9.16 145.28 10.3 A 7.83 7.83 0 0 0 142.231 13.466 A 9.375 9.375 0 0 0 142.16 13.6 A 9.727 9.727 0 0 0 141.232 16.406 A 13.316 13.316 0 0 0 141.04 18.72 Q 141.04 21.68 142.16 23.84 Q 143.28 26 145.3 27.16 Q 147.32 28.32 149.92 28.32 A 9.289 9.289 0 0 0 153.305 27.71 A 8.789 8.789 0 0 0 154.5 27.14 Q 156.56 25.96 157.72 23.78 A 9.792 9.792 0 0 0 158.743 20.617 A 12.694 12.694 0 0 0 158.88 18.72 Z M 58.36 28.32 Q 60.72 28.32 62.78 27.26 A 7.877 7.877 0 0 0 65.84 24.435 A 9.565 9.565 0 0 0 66.08 24.04 A 8.925 8.925 0 0 0 67.048 21.463 Q 67.286 20.359 67.316 19.087 A 15.665 15.665 0 0 0 67.32 18.72 A 13.097 13.097 0 0 0 67.115 16.343 Q 66.847 14.887 66.225 13.704 A 8.054 8.054 0 0 0 66.08 13.44 A 8.505 8.505 0 0 0 64.339 11.275 A 7.636 7.636 0 0 0 62.8 10.22 Q 60.76 9.16 58.4 9.16 Q 56.04 9.16 54.02 10.22 A 7.873 7.873 0 0 0 51.124 12.854 A 9.678 9.678 0 0 0 50.76 13.44 Q 49.52 15.6 49.52 18.72 A 13.573 13.573 0 0 0 49.72 21.117 Q 49.968 22.499 50.524 23.63 A 8.053 8.053 0 0 0 50.74 24.04 Q 51.96 26.2 53.98 27.26 Q 56 28.32 58.36 28.32 Z" vector-effect="non-scaling-stroke"/></g></svg>